<?xml version="1.0" encoding="UTF-8"?><svg id="Layer_2" xmlns="http://www.w3.org/2000/svg" xmlns:xlink="http://www.w3.org/1999/xlink" viewBox="0 0 971.7 241.31"><defs><style>.cls-1{fill:#f1f1f2;}.cls-2{fill:url(#New_Gradient_Swatch_2);}</style><linearGradient id="New_Gradient_Swatch_2" x1="31.98" y1="26.54" x2="220.63" y2="215.19" gradientUnits="userSpaceOnUse"><stop offset="0" stop-color="#05d4fa"/><stop offset="1" stop-color="#02a9f4"/></linearGradient></defs><g><path class="cls-1" d="m369.66,98.92c0,5.28.4,8.49,1.19,9.65.79,1.16,3.72,1.73,8.78,1.73h18.43c5.71,0,10.26-.67,13.66-2.01,3.4-1.34,6.61-4.82,9.65-10.46l20.81-39.57c2.38-4.55,5.02-7.79,7.91-9.7,2.89-1.91,7.08-2.87,12.57-2.87h5.96c.87,0,1.59.18,2.17.54.58.36.87.87.87,1.52,0,.58-.22,1.27-.65,2.06l-30.79,57.13c-3.25,6.07-4.88,10.59-4.88,13.55,0,1.73.43,3.83,1.3,6.29.87,2.46,2.28,5.53,4.23,9.21l28.62,55.5c.29.58.43,1.12.43,1.63,0,.65-.27,1.25-.81,1.79-.54.54-1.28.81-2.22.81h-5.64c-5.71,0-10.08-.85-13.12-2.55-3.04-1.7-5.82-5.08-8.35-10.14l-19.62-39.46c-3.54-6.58-6.67-10.62-9.38-12.14s-7.25-2.28-13.6-2.28h-18.75c-4.05,0-6.52.61-7.43,1.84-.9,1.23-1.35,4.16-1.35,8.78v49.75c0,4.12-2.02,6.18-6.07,6.18h-13.77c-1.59,0-2.38-1.12-2.38-3.36V48.52c0-1.88.79-2.82,2.38-2.82h13.98c2.1,0,3.59.58,4.5,1.73.9,1.16,1.35,2.57,1.35,4.23v47.26Z"/><path class="cls-1" d="m521.74,189.33c0,4.26-2.17,6.4-6.5,6.4h-13.12c-1.01,0-1.7-.33-2.06-.98-.36-.65-.54-1.44-.54-2.38V51.88c0-4.12,1.91-6.18,5.75-6.18h13.77c1.16,0,1.9.29,2.22.87.33.58.49,1.37.49,2.38v140.38Z"/><path class="cls-1" d="m700.82,173.93c0,7.8-1.63,13.6-4.88,17.4-3.25,3.79-10.23,5.69-20.92,5.69-9.54,0-16.19-1.39-19.95-4.17-3.76-2.78-7.44-8.8-11.06-18.05l-41.52-101.14c-1.81-4.05-3.34-6.7-4.61-7.97-1.27-1.26-3.23-1.9-5.91-1.9-2.38,0-3.98.47-4.77,1.41-.8.94-1.19,2.57-1.19,4.88v115.44c0,3.98-.9,6.67-2.71,8.08-1.81,1.41-4.95,2.11-9.43,2.11h-5.42c-1.88,0-2.82-1.12-2.82-3.36v-123.36c0-10.62,1.97-17.36,5.91-20.22,3.94-2.85,10.31-4.28,19.13-4.28,10.48,0,17.51,1.52,21.08,4.55,3.58,3.04,7.21,9.36,10.89,18.97l41.3,100.81c1.66,3.61,3.11,6.04,4.34,7.26,1.23,1.23,3.11,1.84,5.64,1.84s4.15-.72,4.88-2.17c.72-1.44,1.08-3.47,1.08-6.07V55.67c0-3.47.74-6,2.22-7.59,1.48-1.59,4.53-2.38,9.16-2.38h5.96c1.44,0,2.4.29,2.87.87.47.58.71,1.37.71,2.38v124.98Z"/><path class="cls-1" d="m766.83,189.33c0,4.26-2.17,6.4-6.5,6.4h-13.12c-1.01,0-1.7-.33-2.06-.98-.36-.65-.54-1.44-.54-2.38V51.88c0-4.12,1.91-6.18,5.75-6.18h13.77c1.16,0,1.9.29,2.22.87.33.58.49,1.37.49,2.38v140.38Z"/><path class="cls-1" d="m804.45,176.21c0-1.08.34-1.88,1.03-2.38.69-.5,1.43-.76,2.22-.76h.54c6.72,1.3,14.2,2.37,22.44,3.2,8.24.83,15.5,1.25,21.79,1.25,16.98,0,27.66-1.77,32.03-5.31,4.37-3.54,6.56-9.83,6.56-18.86,0-6.72-1.03-11.11-3.09-13.17-2.06-2.06-8.06-4.19-17.99-6.4-9.94-2.2-16.98-3.7-21.14-4.5-4.16-.79-10.43-2.15-18.81-4.06-8.38-1.91-14.2-3.67-17.45-5.26-3.25-1.59-5.6-4.81-7.05-9.65-1.45-4.84-2.17-10.62-2.17-17.34,0-17.78,4.52-30.44,13.55-37.99,9.03-7.55,25.26-11.33,48.67-11.33,10.77,0,19.06.36,24.88,1.08,5.82.72,9.72,1.72,11.71,2.98,1.99,1.27,3.92,3.6,5.8,6.99,1.88,3.4,2.82,6.29,2.82,8.67,0,1.01-.27,1.79-.81,2.33-.54.54-1.18.81-1.9.81h-.54c-4.92-.5-10.82-1.12-17.72-1.84-6.9-.72-14.4-1.08-22.49-1.08-16.26,0-27.21,1.73-32.84,5.2s-8.46,10.26-8.46,20.38c0,6.22.87,10.32,2.6,12.3,1.73,1.99,7.57,4.03,17.51,6.12,9.94,2.1,21.52,4.5,34.74,7.21s21.26,4.84,24.12,6.4c2.85,1.55,5.13,4.59,6.83,9.11,1.7,4.52,2.55,10.57,2.55,18.16,0,17.13-3.61,29.61-10.84,37.45-7.23,7.84-24.1,11.76-50.62,11.76-9.4,0-17.78-.45-25.15-1.36-7.37-.9-12.21-2.13-14.53-3.69-2.31-1.55-4.35-3.99-6.12-7.32-1.77-3.32-2.66-6.36-2.66-9.11Z"/><path class="cls-1" d="m971.7,189.33c0,4.26-2.17,6.4-6.5,6.4h-13.12c-1.01,0-1.7-.33-2.06-.98-.36-.65-.54-1.44-.54-2.38V51.88c0-4.12,1.91-6.18,5.75-6.18h13.77c1.16,0,1.9.29,2.22.87.33.58.49,1.37.49,2.38v140.38Z"/></g><path class="cls-2" d="m202.39,233.43l65.11-112.77L203.76,10.25l-.19-.36-.09.15-47.5,88.14c-5.29,9.88-7.94,17.23-7.94,22.05,0,2.82.71,6.23,2.12,10.23,1.41,4,3.7,9,6.88,14.99l45.27,87.79.09.18ZM.25,101.56c1.95,1.39,6.46,2.09,13.54,2.09h73.56c9.29,0,16.7-1.09,22.23-3.26,5.53-2.18,10.76-7.85,15.7-17.02l33.87-64.39c3.88-7.41,8.17-12.67,12.88-15.79,2.05-1.36,4.51-2.42,7.36-3.19h-.37S58.52,0,58.52,0L0,101.35l.25.21Zm-.25,38.4l58.52,101.35h120.87c-2.86-.77-5.31-1.83-7.36-3.19-4.7-3.12-9-8.38-12.88-15.79l-33.87-64.39c-4.94-9.17-10.17-14.85-15.7-17.02-5.53-2.18-12.94-3.26-22.23-3.26H13.79c-7.08,0-11.6.69-13.54,2.09l-.25.21Z"/></svg>